<svg width="405.4999877929688" height="249.26322779038375" viewBox="0 0 340 209" class="looka-1j8o68f">
    <defs id="SvgjsDefs1187"></defs>
    <g id="SvgjsG1188" featurekey="rootContainer" transform="matrix(1,0,0,1,0,0)" fill="transparent">
        <rect xmlns="http://www.w3.org/2000/svg" width="340" height="209" rx="10" ry="10"></rect>
    </g>
    <g id="SvgjsG1189" featurekey="uKAeQw-0" transform="matrix(5.185260691824356,0,0,5.185260691824356,20.001268405311063,-8.964893244283754)" fill="#393232">
        <path d="M18.994 22.0605 c-0.33203 -0.35808 -0.75521 -0.58271 -1.2695 -0.67386 c-0.46875 -0.084639 -0.88867 -0.045576 -1.2598 0.11719 c-0.40364 0.17578 -0.67708 0.472 -0.82031 0.88867 c-0.13672 0.39714 -0.12044 0.80404 0.048828 1.2207 c0.1888 0.46875 0.50781 0.68685 0.95703 0.6543 c0.13021 -0.0065136 0.25391 -0.058594 0.37109 -0.15625 c0.091143 -0.071611 0.18229 -0.16927 0.27343 -0.29297 c0.0065136 0.091143 -0.01627 0.18229 -0.06835 0.27343 c-0.17578 0.28646 -0.49805 0.38086 -0.9668 0.2832 c-0.54036 -0.11067 -1.1784 -0.46875 -1.9141 -1.0742 c-1.4519 -1.1979 -2.7327 -2.7197 -3.8428 -4.5654 s-1.7139 -3.6604 -1.8115 -5.4443 c-0.058594 -1.0026 0.11394 -2.0215 0.51758 -3.0566 c0.32552 -0.82031 0.79102 -1.6341 1.3965 -2.4414 c0.69661 -0.91797 1.3997 -1.6536 2.1094 -2.207 l-6.0938 0 c-0.065107 2.1028 -0.71289 3.8086 -1.9434 5.1172 c0.097656 -1.1979 0.23763 -2.4056 0.41992 -3.623 c0.058594 -0.38411 0.11719 -0.74544 0.17578 -1.084 c0.019531 -0.11067 0.035811 -0.21158 0.048828 -0.30272 l0.019531 -0.078125 l0 -0.029297 l-5.3418 0 c0.70964 2.8972 0.95378 6.0286 0.73242 9.3945 c-0.071611 1.1328 -0.19531 2.2331 -0.37109 3.3008 c-0.058594 0.39063 -0.1237 0.75195 -0.19531 1.084 c-0.05208 0.26042 -0.10091 0.46875 -0.14648 0.625 l5.293 0 c-0.4362 -1.2565 -0.69011 -2.8516 -0.76172 -4.7852 c0.54688 0.74219 1.1882 1.9206 1.9238 3.5352 c1.5886 2.7864 3.0273 4.7624 4.3164 5.9277 c1.2109 1.2175 2.5212 1.9759 3.9307 2.2754 s2.583 0.10092 3.5205 -0.59569 s1.3672 -1.696 1.2891 -2.998 c-0.032549 -0.5013 -0.21158 -0.93099 -0.5371 -1.2891 z M20.5908171875 9.414 c0.5013 1.4519 0.88217 2.8157 1.1426 4.0918 c-0.72917 0.25391 -1.5039 0.31901 -2.3242 0.19531 c0.26692 -1.3347 0.6608 -2.7637 1.1816 -4.2871 z M27.436117187500003 19.9999904633 c-0.013018 -0.058594 -0.55177 -1.6341 -1.6162 -4.7266 s-1.4339 -6.3151 -1.1084 -9.668 l-8.2324 0 c0.13021 3.8802 -0.28972 7.2347 -1.2598 10.063 s-1.4616 4.2725 -1.4746 4.3311 l5.7129 0 c-0.3125 -0.89192 -0.45247 -1.9563 -0.41992 -3.1934 c1.1979 0.34505 2.2331 0.319 3.1055 -0.078135 c0.039063 1.2695 -0.097656 2.3601 -0.41016 3.2715 l5.7031 0 z M30.253904375 5.645 l0 4.707 c0.29297 -0.53386 0.76823 -0.9082 1.4258 -1.123 c0.69661 -0.22786 1.364 -0.17578 2.002 0.15625 c0.52734 0.27995 0.74219 0.89844 0.64453 1.8555 c-0.091143 0.82683 -0.40364 1.8555 -0.9375 3.0859 c-1.0742 2.4479 -2.2591 4.3392 -3.5547 5.6738 l11.514 0 l0 -3.2129 l0 -3.2129 c-0.24739 0.85286 -0.55664 1.5202 -0.92773 2.002 c-0.50781 0.65755 -1.1133 0.93424 -1.8164 0.83007 c-0.82683 -0.11067 -1.1784 -0.73893 -1.0547 -1.8848 c0.097656 -0.93099 0.49805 -2.1582 1.2012 -3.6816 c0.53386 -1.1589 1.1719 -2.3535 1.9141 -3.584 c0.27995 -0.46224 0.53061 -0.85286 0.75196 -1.1719 c0.20183 -0.29297 0.31901 -0.43945 0.35156 -0.43945 l-11.514 0 z M51.0107390625 9.414 c0.5013 1.4519 0.88217 2.8157 1.1426 4.0918 c-0.72917 0.25391 -1.5039 0.31901 -2.3242 0.19531 c0.26692 -1.3347 0.6608 -2.7637 1.1816 -4.2871 z M57.8560390625 19.9999904633 c-0.013018 -0.058594 -0.55177 -1.6341 -1.6162 -4.7266 s-1.4339 -6.3151 -1.1084 -9.668 l-8.2324 0 c0.13021 3.8802 -0.28972 7.2347 -1.2598 10.063 s-1.4616 4.2725 -1.4746 4.3311 l5.7129 0 c-0.3125 -0.89192 -0.45247 -1.9563 -0.41992 -3.1934 c1.1979 0.34505 2.2331 0.319 3.1055 -0.078135 c0.039063 1.2695 -0.097656 2.3601 -0.41016 3.2715 l5.7031 0 z"></path>
    </g>
    <g id="SvgjsG1190" featurekey="uKAeQw-1" transform="matrix(3.142637404670751,0,0,3.142637404670751,20.000105271471824,124.67976746947981)" fill="#393232">
        <path d="M6.3281 10.8203 c-0.44922 0.10417 -0.96681 0.1465 -1.5527 0.12697 c0.078125 -0.86589 0.17253 -1.7415 0.2832 -2.627 c1.0026 -0.084639 1.7253 0.074863 2.168 0.47851 c0.41667 0.39063 0.45248 0.87891 0.10743 1.4648 c-0.14323 0.25391 -0.47852 0.43945 -1.0059 0.55664 z M4.6191 16.3086 c-0.032549 -0.79427 -0.045548 -1.6211 -0.039034 -2.4805 c0.54036 -0.032549 0.9733 -0.013018 1.2988 0.058594 c0.61849 0.1237 1.0417 0.306 1.2695 0.54688 c0.20833 0.22136 0.24414 0.4655 0.10742 0.73242 c-0.11719 0.24739 -0.36133 0.47525 -0.73242 0.68358 c-0.37761 0.20833 -0.80078 0.3483 -1.2695 0.41991 c-0.22136 0.032549 -0.43295 0.045566 -0.63478 0.039053 z M11.455 14.3164 c-0.14974 -0.44271 -0.34501 -0.80404 -0.5859 -1.084 c-0.20833 -0.24739 -0.51758 -0.5013 -0.92773 -0.76172 c-0.47526 -0.29297 -0.84311 -0.42317 -1.1035 -0.39063 l0.019531 -0.0097656 l0.0097656 0 c0.37109 -0.039063 0.73894 -0.23438 1.1035 -0.58594 c0.48177 -0.46224 0.77148 -1.0026 0.86914 -1.6211 c0.091143 -0.56641 0.01627 -1.1394 -0.22462 -1.7188 c-0.22786 -0.56641 -0.57291 -1.0547 -1.0352 -1.4648 c-0.48177 -0.42969 -1.0091 -0.71289 -1.582 -0.84961 c-0.69011 -0.15625 -1.6243 -0.23763 -2.8027 -0.24414 c-1.2956 -0.0065136 -2.6595 -0.0097656 -4.0918 -0.0097656 c-0.0065136 0 -0.071621 0.0032521 -0.19532 0.0097656 l-0.17578 0 l-0.19531 0.0097656 c-0.35156 0.0065136 -0.5306 0 -0.53711 -0.019531 c0.70964 2.8972 0.95378 6.0319 0.73242 9.4043 c-0.071611 1.1394 -0.19531 2.2429 -0.37109 3.3105 c-0.058594 0.39063 -0.1237 0.75195 -0.19531 1.084 c-0.05208 0.26042 -0.10091 0.46875 -0.14648 0.625 l5.2441 0 c1.7513 0 3.2454 -0.3418 4.4824 -1.0254 c1.569 -0.87891 2.2136 -2.1387 1.9336 -3.7793 c-0.05208 -0.3125 -0.12695 -0.60547 -0.22461 -0.87891 z M18.7451453125 15.4297 c-0.41016 -0.69011 -0.61522 -1.5625 -0.61522 -2.6172 c0 -0.85286 0.17903 -1.6438 0.53711 -2.373 c0.42969 -0.88542 0.90169 -1.3672 1.416 -1.4453 c0.29297 -0.045576 0.58269 0.035801 0.86914 0.24413 c0.26692 0.20183 0.49479 0.48503 0.68358 0.84961 c0.22136 0.42317 0.39389 0.88216 0.51759 1.377 c0.11067 0.44922 0.16602 0.89844 0.16602 1.3477 c0 1.0547 -0.20508 1.9271 -0.61523 2.6172 c-0.39714 0.67058 -0.88867 1.0059 -1.4746 1.0059 c-0.59245 0 -1.0872 -0.33528 -1.4844 -1.0059 z M24.233445312500002 7.49 c-0.55339 -0.74219 -1.2109 -1.3118 -1.9727 -1.709 c-0.82031 -0.42969 -1.6602 -0.5957 -2.5195 -0.49805 c-1.4778 0.16276 -2.8418 1.1394 -4.0918 2.9297 c-1.0286 1.4648 -1.543 3.0566 -1.543 4.7754 c0 2.1224 0.58919 3.877 1.7676 5.2637 c1.1589 1.3542 2.5879 2.0313 4.2871 2.0313 s3.125 -0.67708 4.2773 -2.0313 c1.1784 -1.3867 1.7676 -3.1413 1.7676 -5.2637 c0 -0.91146 -0.1595 -1.8196 -0.47852 -2.7246 c-0.35156 -0.99609 -0.84961 -1.9206 -1.4941 -2.7734 z M33.535184375 15.4297 c-0.41016 -0.69011 -0.61522 -1.5625 -0.61522 -2.6172 c0 -0.85286 0.17903 -1.6438 0.53711 -2.373 c0.42969 -0.88542 0.90169 -1.3672 1.416 -1.4453 c0.29297 -0.045576 0.58269 0.035801 0.86914 0.24413 c0.26692 0.20183 0.49479 0.48503 0.68358 0.84961 c0.22136 0.42317 0.39389 0.88216 0.51759 1.377 c0.11067 0.44922 0.16602 0.89844 0.16602 1.3477 c0 1.0547 -0.20508 1.9271 -0.61523 2.6172 c-0.39714 0.67058 -0.88867 1.0059 -1.4746 1.0059 c-0.59245 0 -1.0872 -0.33528 -1.4844 -1.0059 z M39.023484375 7.49 c-0.55339 -0.74219 -1.2109 -1.3118 -1.9727 -1.709 c-0.82031 -0.42969 -1.6602 -0.5957 -2.5195 -0.49805 c-1.4778 0.16276 -2.8418 1.1394 -4.0918 2.9297 c-1.0286 1.4648 -1.543 3.0566 -1.543 4.7754 c0 2.1224 0.58919 3.877 1.7676 5.2637 c1.1589 1.3542 2.5879 2.0313 4.2871 2.0313 s3.125 -0.67708 4.2773 -2.0313 c1.1784 -1.3867 1.7676 -3.1413 1.7676 -5.2637 c0 -0.91146 -0.1595 -1.8196 -0.47852 -2.7246 c-0.35156 -0.99609 -0.84961 -1.9206 -1.4941 -2.7734 z M56.7725546875 20 c-2.2136 -2.3828 -3.5921 -4.2399 -4.1357 -5.5713 s-0.24577 -2.946 0.89355 -4.8438 s2.155 -3.2341 3.0469 -4.0088 l-6.0938 0 c-0.11067 1.862 -0.91146 3.6067 -2.4023 5.2344 c0.097656 -1.4258 0.23438 -2.7083 0.41016 -3.8477 c0.05208 -0.35808 0.10416 -0.69336 0.15624 -1.0059 c0.019531 -0.097656 0.035811 -0.1888 0.048828 -0.27344 l0.019531 -0.078125 l0 -0.0097656 l0 -0.0097656 l-5.3418 0 c0.70964 2.8906 0.95378 6.0188 0.73242 9.3848 c-0.071611 1.1394 -0.19531 2.2429 -0.37109 3.3105 c-0.058594 0.38411 -0.1237 0.74544 -0.19531 1.084 c-0.05208 0.25391 -0.10091 0.45898 -0.14648 0.61523 l5.293 0 c-0.44271 -1.2761 -0.69661 -3.0762 -0.76172 -5.4004 c1.1067 1.543 1.8604 2.7474 2.2607 3.6133 s0.57129 1.4681 0.5127 1.8066 l6.0742 0 z M59.882812625 20 c0.74219 -6.3802 0.73894 -11.143 -0.0097656 -14.287 c-0.0065136 -0.032549 -0.0097656 -0.058594 -0.0097656 -0.078125 l-0.0097656 -0.029297 l0 0 l5.4395 0 c-0.90495 4.6289 -1.2272 8.1511 -0.9668 10.566 s0.41016 3.6914 0.44922 3.8281 l-4.8926 0 z M76.1865234375 5.605 c0.084639 0.31901 0.19208 1.1264 0.32229 2.4219 c0.14974 1.4974 0.24414 2.8938 0.2832 4.1895 c-0.95052 -1.2239 -1.6146 -2.3145 -1.9922 -3.2715 c-0.33203 -0.82031 -0.57942 -1.9043 -0.74219 -3.252 l-5.4004 0 c0.57942 2.6953 0.70638 5.8821 0.38086 9.5605 c-0.097656 1.1523 -0.23763 2.2884 -0.41992 3.4082 c-0.058594 0.34505 -0.11719 0.67057 -0.17578 0.97655 c-0.019531 0.097656 -0.035811 0.18555 -0.048828 0.26367 l-0.0097656 0.039063 l0 0.029297 l-0.0097656 0.019531 l0 0.0097656 l4.9707 0 c-0.48177 -1.2239 -0.73242 -2.6367 -0.75195 -4.2383 c0 -0.51433 0.019531 -0.99932 0.058594 -1.4551 c0.019531 -0.16276 0.039063 -0.29623 0.058594 -0.4004 c0.013018 -0.097656 0.022783 -0.13997 0.029297 -0.12695 c-0.0065136 -0.0065136 0 -0.0032615 0.019531 0.0097561 l0.058594 0.058594 c0.071611 0.078125 0.15299 0.17253 0.24413 0.2832 c0.28646 0.34505 0.56966 0.74219 0.84961 1.1914 c0.39063 0.61198 0.73894 1.2663 1.0449 1.9629 c0.38411 0.87239 0.6901 1.7773 0.91796 2.7148 l5.3906 0 l-0.0097656 -0.0097656 l0 -0.019531 l-0.019531 -0.078125 c-0.013018 -0.097656 -0.029297 -0.20183 -0.048828 -0.3125 c-0.065107 -0.35156 -0.12695 -0.72591 -0.18555 -1.123 c-0.1888 -1.2695 -0.33203 -2.5195 -0.42969 -3.75 c-0.30599 -3.9388 -0.087891 -6.9727 0.6543 -9.1016 l-5.0391 0 z M95.098109375 20 c-0.039063 -0.18229 -0.078087 -0.54363 -0.11715 -1.084 c-0.045576 -0.59896 -0.074873 -1.2207 -0.087891 -1.8652 c-0.039063 -1.7253 0.042314 -2.9622 0.24414 -3.7109 l-3.8574 0 c0.18229 0.98311 0.30925 2.028 0.38086 3.1348 c-0.72917 -0.1237 -1.3704 -0.50456 -1.9238 -1.1426 c-0.54036 -0.61849 -0.89192 -1.3477 -1.0547 -2.1875 c-0.15625 -0.82031 -0.11394 -1.6146 0.12695 -2.3828 c0.26692 -0.85286 0.72591 -1.4812 1.377 -1.8848 c0.27995 -0.17578 0.52734 -0.30599 0.74219 -0.39063 c0.29297 -0.1237 0.56315 -0.18555 0.81055 -0.18555 c0.25391 -0.0065136 0.49153 0.032549 0.71289 0.11719 c0.26692 0.097656 0.45572 0.24089 0.5664 0.42969 c0.078125 0.13672 0.11719 0.25716 0.11719 0.36133 c-0.22136 -0.39714 -0.55339 -0.58269 -0.99609 -0.55664 c-0.52734 0.019531 -0.88867 0.27995 -1.084 0.78125 c-0.10417 0.27344 -0.074873 0.57617 0.087891 0.9082 c0.14974 0.30599 0.35481 0.5306 0.61523 0.67383 c0.51433 0.29297 1.0515 0.41016 1.6113 0.35156 c0.59245 -0.065107 1.071 -0.32227 1.4355 -0.77148 c0.36458 -0.44271 0.57942 -1.0938 0.64453 -1.9531 c0.097656 -1.3021 -0.42644 -2.2493 -1.5723 -2.8418 c-0.93099 -0.48177 -2.1224 -0.67708 -3.5742 -0.58594 c-1.1784 0.071611 -2.2624 0.45898 -3.252 1.1621 c-1.0286 0.72917 -1.8457 1.6536 -2.4512 2.7734 c-0.61198 1.1198 -0.92123 2.2722 -0.92774 3.457 c-0.0065136 1.3411 0.20182 2.5293 0.62499 3.5645 c0.77474 2.5521 3.2324 3.8281 7.373 3.8281 l3.4277 0 z"></path>
    </g>
</svg>